<svg xmlns="http://www.w3.org/2000/svg" viewBox="0 0 64 64">
  <rect width="64" height="64" rx="16" fill="#07172f" />
  <path
    d="M15 20h24c6.1 0 10 3.9 10 10v14H25c-6.1 0-10-3.9-10-10V20Z"
    fill="#d9c39a"
  />
  <path
    d="M20 24v18M25 24v20M30 24v20M35 24v20M40 25v19"
    stroke="#9f8354"
    stroke-width="1.7"
    stroke-linecap="round"
    opacity=".95"
  />
  <path
    d="M15 20h24c6.1 0 10 3.9 10 10v14H25c-6.1 0-10-3.9-10-10V20Z"
    fill="none"
    stroke="#fff7e7"
    stroke-width="2.5"
  />
  <rect
    x="25"
    y="33"
    width="17"
    height="11"
    rx="2.5"
    fill="#8fd8ef"
    stroke="#f8fdff"
    stroke-width="2"
  />
  <path
    d="M29 37h9M29 40h9"
    stroke="#5bb6d5"
    stroke-width="1.2"
    stroke-linecap="round"
    opacity=".8"
  />
  <path
    d="M18 16 48 46M46 16 16 46"
    stroke="#ffffff"
    stroke-width="5"
    stroke-linecap="round"
    opacity=".98"
  />
  <path
    d="M18 16 48 46M46 16 16 46"
    stroke="#07172f"
    stroke-width="2"
    stroke-linecap="round"
    opacity=".45"
  />
</svg>
